<?xml version="1.0" encoding="utf-8" ?>
<svg baseProfile="full" height="200mm" version="1.1" viewBox="0,0,200,200" width="200mm" xmlns="http://www.w3.org/2000/svg" xmlns:ev="http://www.w3.org/2001/xml-events" xmlns:xlink="http://www.w3.org/1999/xlink"><defs /><rect fill="#1a1a1a" height="200" width="200" x="0" y="0" /><text alignment-baseline="middle" fill="#e1ed5e" style="dominant-baseline: central; font-size:9.0px; font-family:Arial;" text-anchor="middle" x="100.0" y="100.0">2021</text><line stroke="#e1ed5e" stroke-width="0.3" x1="100.0" x2="100.0" y1="15.0" y2="10.0" /><path d="M 100.0 14.0 a86.0,86.0 0 0,1 42.46469731375804,11.215312516191453" fill="none" id="id97" stroke="none" /><text fill="#e1ed5e" style="font-size:6.75px; font-family:Arial;" text-anchor="middle"><textPath startOffset="22.20632615414155" xlink:href="#id97">January</textPath></text><path d="M 100.0 79.0 l 0.0 -43.78281164433966 a64.78281164433966,64.78281164433966 0 0,0 1.1151296096103729,0.00959827260889874 l -0.7536491303378445 43.77632474833932" fill="#33ff55" stroke="none" /><line stroke="#e1ed5e" stroke-width="0.3" x1="143.23703022742887" x2="145.7803849466894" y1="26.81831364943548" y2="22.513508569990506" /><path d="M 143.74570117128098 25.957352633546492 a86.0,86.0 0 0,1 28.547481713284135,27.462654790039103" fill="none" id="id98" stroke="none" /><text fill="#e1ed5e" style="font-size:6.75px; font-family:Arial;" text-anchor="middle"><textPath startOffset="19.985693538727396" xlink:href="#id98">February</textPath></text><path d="M 111.60114157652 82.49532879139004 l 18.87637465787087 -28.482087716723164 a55.169384555877244,55.169384555877244 0 0,0 0.7870708869248121,0.5314337762603663 l -19.363850239202225 28.15294202816413" fill="#78ff26" stroke="none" /><path d="M 112.77801427241765 83.33499621200491 l 18.858047477887386 -24.5945438745956 a51.99221745983438,51.99221745983438 0 0,0 0.7055280648154408,0.5506758454891798 l -19.278608097862257 24.266289639883198" fill="#9dff22" stroke="none" /><path d="M 113.34407831869373 83.78471172551755 l 19.793566008861163 -24.05249513291975 a52.14976368235034,52.14976368235034 0 0,0 0.6882339978060258,0.5763761806123499 l -20.204657543626308 23.70821779491358" fill="#9bff22" stroke="none" /><path d="M 113.89432698308785 84.25364557470407 l 20.30543317105953 -23.01202122706966 a51.68979858551485,51.68979858551485 0 0,0 0.6620946606133252,0.5944351235674858 l -20.698538819268848 22.659087094732875" fill="#a1ff22" stroke="none" /><path d="M 115.19652480421416 85.50635884689758 l 23.871956715275665 -22.76780900312496 a53.9885350420229,53.9885350420229 0 0,0 0.635606195301468,0.678020372787251 l -24.2603302325476 22.353519213459656" fill="#86ff25" stroke="none" /><path d="M 115.68641384162765 86.03803664274999 l 23.633732158001884 -21.03561118025717 a52.63937789279576,52.63937789279576 0 0,0 0.5966000111755111,0.6820169455135324 l -23.992324032755242 20.62567867854069" fill="#95ff23" stroke="none" /><path d="M 116.60985879189232 87.15038557335679 l 17.694146406634445 -13.688434187339901 a43.37087498424124,43.37087498424124 0 0,0 0.45172637393265147,0.5944189573250032 l -17.92714872079121 13.381830454133866" fill="#fff517" stroke="none" /><line stroke="#e1ed5e" stroke-width="0.3" x1="172.23445277983987" x2="176.4835382374775" y1="55.19839476539836" y2="52.563006222186495" /><path d="M 173.08426987136738 54.67131705675599 a86.0,86.0 0 0,1 12.851231095245387,41.99856678651699" fill="none" id="id99" stroke="none" /><text fill="#e1ed5e" style="font-size:6.75px; font-family:Arial;" text-anchor="middle"><textPath startOffset="22.20632615414155" xlink:href="#id99">March</textPath></text><path d="M 118.03404312379186 89.2402003453031 l 25.499612186115087 -15.214043601409355 a50.69338889968361,50.69338889968361 0 0,0 0.4406470339024068,0.7532086187738952 l -25.75771889448782 14.772855570281564" fill="#adff20" stroke="none" /><path d="M 120.08093135843002 93.85539295169968 l 28.497538679460103 -8.720022687369601 a50.801820522504414,50.801820522504414 0 0,0 0.24867274122395966,0.8384008615655751 l -28.643417317795766 8.228192439057496" fill="#abff21" stroke="none" /><path d="M 120.6074358757038 95.95851677861258 l 29.422599913098423 -5.770293043521185 a50.9830896915973,50.9830896915973 0 0,0 0.16148110969882426,0.862638545053188 l -29.517566746707107 5.262976421005434" fill="#a9ff21" stroke="none" /><path d="M 120.96714384426684 98.82574320788733 l 30.49559165919128 -1.7078938314763084 a51.5433791841003,51.5433791841003 0 0,0 0.04198672558536489,0.8862734166903756 l -30.520471993010144 1.182709308162933" fill="#a2ff22" stroke="none" /><line stroke="#e1ed5e" stroke-width="0.3" x1="184.98032266829074" x2="189.97916517819016" y1="98.17113171792111" y2="98.06355123074" /><path d="M 185.9800911702706 98.14961562048488 a86.0,86.0 0 0,1 -9.607161424134198,41.387399972396054" fill="none" id="id100" stroke="none" /><text fill="#e1ed5e" style="font-size:6.75px; font-family:Arial;" text-anchor="middle"><textPath startOffset="21.466115282336823" xlink:href="#id100">April</textPath></text><path d="M 120.99824983174949 100.27111621757518 l 62.138061591901334 0.8022876364094856 a83.14324069317965,83.14324069317965 0 0,0 -0.03079442448937565,1.4308959016537561 l -62.11504510472695 -1.8717733538533565" fill="#4cdaff" stroke="none" /><path d="M 120.92983693683757 101.71520430193887 l 29.97442692312259 2.456410251156997 a51.07491015267719,51.07491015267719 0 0,0 -0.07934950304015224,0.8756151539606362 l -29.92770282380536 -2.9720067936662034" fill="#a8ff21" stroke="none" /><path d="M 120.64145759157962 103.86396538481128 l 17.70853960823763 3.3149395462122184 a39.01613719007386,39.01613719007386 0 0,0 -0.12925501330210107,0.6590685281434545 l -17.648854661959863 -3.619271801423618" fill="#ffba11" stroke="none" /><path d="M 120.5718875245553 104.21870165774334 l 17.62956432671224 3.6153159092289697 a38.99644541216984,38.99644541216984 0 0,0 -0.14050969183055298,0.6564145021473227 l -17.564720596157244 -3.918244230792461" fill="#ffba11" stroke="none" /><path d="M 120.23288151984713 105.62410040840565 l 13.70529559686645 3.80963821134654 a35.22492427743777,35.22492427743777 0 0,0 -0.16741460990561352,0.5827922198149008 l -13.637688350074736 -4.044987906666022" fill="#ff840c" stroke="none" /><path d="M 118.97047184881838 109.00673069616215 l 16.198297576607196 7.690568013883345 a38.93124872273217,38.93124872273217 0 0,0 -0.29262718222884937,0.6028986686997746 l -16.06351713776363 -7.968255638548395" fill="#ffb911" stroke="none" /><line stroke="#e1ed5e" stroke-width="0.3" x1="174.80103733775053" x2="179.2010983576182" y1="140.37084112569926" y2="142.7455964860345" /><path d="M 175.68104954172406 140.8457921977663 a86.0,86.0 0 0,1 -30.038265399797805,32.042727171017184" fill="none" id="id101" stroke="none" /><text fill="#e1ed5e" style="font-size:6.75px; font-family:Arial;" text-anchor="middle"><textPath startOffset="22.206326154141568" xlink:href="#id101">May</textPath></text><path d="M 118.48025628344425 109.97397251340804 l 26.211694855070956 14.146704461481207 a50.785603809489,50.785603809489 0 0,0 -0.4218193983154364,0.7657247336691885 l -25.96429904730401 -14.5957997135482" fill="#acff21" stroke="none" /><path d="M 118.12598468904814 110.60418214915192 l 26.24378487461843 15.353310723127745 a51.404940300980044,51.404940300980044 0 0,0 -0.453389429872973,0.759906763378384 l -25.97561456904723 -15.802779580392233" fill="#a4ff21" stroke="none" /><path d="M 117.75023020441432 111.22182372390056 l 25.701109248082748 16.24842687499168 a51.40655180210075,51.40655180210075 0 0,0 -0.47929299206700265,0.7438733673893965 l -25.417611392638694 -16.688421842302528" fill="#a4ff21" stroke="none" /><path d="M 111.7513745106137 117.40417183066458 l 12.80746814210232 18.96828120485714 a43.88726571868082,43.88726571868082 0 0,0 -0.6297306459124163,0.41735113394817624 l -12.479062797449938 -19.185930359896634" fill="#fffc17" stroke="none" /><path d="M 111.45004920935366 117.60387380957326 l 11.738118390828456 18.046765663257744 a42.52833421938734,42.52833421938734 0 0,0 -0.6171027316798844,0.3938641605633096 l -11.42573385710164 -18.246144252644864" fill="#ffea16" stroke="none" /><path d="M 111.1453310114006 117.79835938074945 l 9.6195585801813 15.361801324617902 a39.12514406051913,39.12514406051913 0 0,0 -0.5738741988707039,0.3525204044405429 l -9.353705181378288 -15.525110195886823" fill="#ffbb11" stroke="none" /><line stroke="#e1ed5e" stroke-width="0.3" x1="143.8653032363475" x2="146.44561519142675" y1="172.8068346515853" y2="177.08958963109032" /><path d="M 144.38136562736335 173.6633856474863 a86.0,86.0 0 0,1 -40.68145358897372,12.25698825130547" fill="none" id="id102" stroke="none" /><text fill="#e1ed5e" style="font-size:6.75px; font-family:Arial;" text-anchor="middle"><textPath startOffset="21.466115282336833" xlink:href="#id102">June</textPath></text><path d="M 110.8373102113329 117.98757091392108 l 7.942395548410261 13.182644066425535 a36.39037854081151,36.39037854081151 0 0,0 -0.539326427968564,0.3186435600407296 l -7.714301249413315 -13.317406198760013" fill="#ff950d" stroke="none" /><path d="M 110.5260780823613 118.17145234162733 l 9.061616964977466 15.643313637687859 a39.07833409324649,39.07833409324649 0 0,0 -0.5849677385179705,0.3321599486506827 l -8.791000459538296 -15.79697675213317" fill="#ffbb11" stroke="none" /><path d="M 110.21172684928248 118.3499491758327 l 8.812569878861483 15.835735891911819 a39.12269072483998,39.12269072483998 0 0,0 -0.5912690273515337,0.32240701705927993 l -8.538678039641301 -15.98508356073087" fill="#ffbb11" stroke="none" /><path d="M 109.89434966115114 118.52300852407294 l 8.504992669753712 15.92202187250145 a39.05119610499479,39.05119610499479 0 0,0 -0.5956406371262719,0.31161102962941856 l -8.229661130100943 -16.066062321075584" fill="#ffba11" stroke="none" /><path d="M 109.57404056367764 118.69057910512821 l 15.043550046337636 29.36823384995385 a53.99699315789607,53.99699315789607 0 0,0 -0.8309008255168968,0.41663092313235917 l -14.53579531313798 -29.62283261399551" fill="#86ff25" stroke="none" /><path d="M 109.2508944713604 118.85261126421891 l 14.534171380710854 29.61952316463764 a53.99330674886014,53.99330674886014 0 0,0 -0.8378921277252885,0.40223913992888627 l -14.022166584985332 -29.865316581066086" fill="#86ff25" stroke="none" /><path d="M 108.92500713936063 119.00905698771935 l 7.671360566270255 16.33895949891878 a39.05024571702653,39.05024571702653 0 0,0 -0.6109169281518795,0.28044199813138265 l -7.388975642350956 -16.468588567384234" fill="#ffba11" stroke="none" /><path d="M 108.59647513512805 119.15986991738527 l 8.815885651775451 19.648893254437933 a42.53598955120189,42.53598955120189 0 0,0 -0.6706088915893693,0.2939752306941 l -8.476356085528327 -19.79773303842649" fill="#ffea16" stroke="none" /><path d="M 108.2653958097858 119.30500536409082 l 8.360275949912909 19.526611401629992 a42.24106322171653,42.24106322171653 0 0,0 -0.6708857221721232,0.2804302862783906 l -8.022918768243326 -19.667626730928355" fill="#ffe615" stroke="none" /><path d="M 107.93186726928326 119.44442032107085 l 7.97871090710762 19.559254237512203 a42.12402078362065,42.12402078362065 0 0,0 -0.6737414654091698,0.26809563352548754 l -7.640848365656583 -19.69369671544376" fill="#ffe415" stroke="none" /><path d="M 107.59598834532513 119.57807347666477 l 7.611935742520038 19.6191766616421 a42.04408844851628,42.04408844851628 0 0,0 -0.6769694450205852,0.2559719181340187 l -7.273096076739178 -19.74729682988275" fill="#ffe315" stroke="none" /><path d="M 107.2578585660854 119.70592522655815 l 11.436321276343024 31.050934636779996 a54.0900285003401,54.0900285003401 0 0,0 -0.8764656506498045,0.31426939916881586 l -10.900136065063485 -31.24319157698877" fill="#84ff25" stroke="none" /><path d="M 106.91757812671514 119.82793768551818 l 5.9441874656533065 17.03789628408276 a39.0450346193625,39.0450346193625 0 0,0 -0.6364903394629324,0.21593208081676865 l -5.650027393253147 -17.137691351797653" fill="#ffba11" stroke="none" /><path d="M 106.57524785965236 119.94407469862006 l 9.50416526858896 28.828081634445073 a51.35436456549341,51.35436456549341 0 0,0 -0.8419148360151213,0.2695545436978083 l -9.006529087482898 -28.987409024802588" fill="#a5ff21" stroke="none" /><path d="M 106.2309692047433 120.05430185196036 l 5.545622498562179 17.8485214561047 a39.69020190007558,39.69020190007558 0 0,0 -0.6541796260540697,0.197098955012791 l -5.237567898067863 -17.941335780223213" fill="#ffc312" stroke="none" /><path d="M 105.88484417918355 120.15858648285463 l 5.175242280920367 17.727838820047218 a39.467793639084206,39.467793639084206 0 0,0 -0.6537912033674617,0.1847679246154615 l -4.8693199094483 -17.8142955380012" fill="#ffc011" stroke="none" /><path d="M 105.53697534728816 120.25689768951611 l 4.952509167160667 18.118641534985194 a39.78330423871426,39.78330423871426 0 0,0 -0.6621259546651665,0.17487348259622484 l -4.639892769684002 -18.201206366885003" fill="#ffc412" stroke="none" /><path d="M 105.18746579009965 120.34920634021253 l 4.692100107560632 18.40600345546577 a39.99465100026816,39.99465100026816 0 0,0 -0.668570993404085,0.16431848392726955 l -4.374575829413336 -18.484043197707066" fill="#ffc712" stroke="none" /><path d="M 104.83641907484287 120.43548508189849 l 7.595390973320448 32.093062351409124 a53.97960908090076,53.97960908090076 0 0,0 -0.9060345021270289,0.20621050288902606 l -7.041836321800558 -32.21904958787584" fill="#86ff25" stroke="none" /><path d="M 104.48393922423573 120.51570834832081 l 3.9733520932297597 18.179580193526355 a39.60872544989659,39.60872544989659 0 0,0 -0.6673288221939483,0.13984524300734627 l -3.6598318096064335 -18.24528141726024" fill="#ffc212" stroke="none" /><path d="M 104.13013068566511 120.58985236759428 l 3.62983828635193 18.09575534586069 a39.456220835325745,39.456220835325745 0 0,0 -0.6670588668167294,0.12784341943890995 l -3.317811804963496 -18.15555596364807" fill="#ffc011" stroke="none" /><path d="M 103.7750983002368 120.6578951692458 l 3.3211247950419938 18.173685134412725 a39.4746502340103,39.4746502340103 0 0,0 -0.66947320388685,0.11639649785123875 l -3.0078026196830936 -18.228160210784967" fill="#ffc011" stroke="none" /><path d="M 103.41894727170886 120.7198165907248 l 2.9886457420097825 18.11206395065061 a39.35698406393846,39.35698406393846 0 0,0 -0.6693763440080921,0.10454281851426055 l -2.676433534393173 -18.16082507651198" fill="#ffbf11" stroke="none" /><path d="M 103.06178313531738 120.77559828337769 l 2.6965847651662 18.297560389548003 a39.49519628457299,39.49519628457299 0 0,0 -0.6734333607128433,0.09333172745604205 l -2.3812228132665263 -18.34126668249665" fill="#ffc111" stroke="none" /><path d="M 102.34483914955558 120.86867818915974 l 6.999099844546344 62.2908237852129 a83.68280566849552,83.68280566849552 0 0,0 -1.4328385306180422,0.1485195722218509 l -5.925828717322699 -62.402072725890505" fill="#4dd5ff" stroke="none" /><path d="M 101.98527174616119 120.90594882070398 l 1.4491399275704742 15.260200634199325 a36.3288528574612,36.3288528574612 0 0,0 -0.6230496565021943,0.053759346019239145 l -1.186245953326738 -15.282884232497228" fill="#ff940d" stroke="none" /><path d="M 101.62511606390274 120.93702456842531 l 0.42246546757344594 5.442792715158302 a26.459163819805404,26.459163819805404 0 0,0 -0.4543885615272682,0.03133729556730344 l -0.32871414526724735 -5.4492583552418905" fill="#ff0000" stroke="none" /><path d="M 101.26447882468166 120.96189622390904 l 0.9176839918526455 15.212905291949486 a36.240558760449936,36.240558760449936 0 0,0 -0.6230130533278488,0.032202658548370136 l -0.6556828701113171 -15.22644775726006" fill="#ff930d" stroke="none" /><path d="M 100.90346689309514 120.98055641714683 l 0.7790803134725552 18.092017090191334 a39.108783739572786,39.108783739572786 0 0,0 -0.6728194112316634,0.023173260922943327 l -0.46754055056623944 -18.10274714954037" fill="#ffbb11" stroke="none" /><line stroke="#e1ed5e" stroke-width="0.3" x1="102.19456741930631" x2="102.32365962044197" y1="184.97166512339345" y2="189.96999836594603" /><path d="M 102.22038585953345 185.97133177190398 a86.0,86.0 0 0,1 -42.740103519485714,-10.115201625700543" fill="none" id="id103" stroke="none" /><text fill="#e1ed5e" style="font-size:6.75px; font-family:Arial;" text-anchor="middle"><textPath startOffset="22.20632615414155" xlink:href="#id103">July</textPath></text><path d="M 100.54218724476979 120.99299961872073 l 0.4774690670784976 18.487170326896365 a39.49333510770013,39.49333510770013 0 0,0 -0.6797372994523772,0.011702294049020264 l -0.15917207773345252 -18.492650098224548" fill="#ffc011" stroke="none" /><path d="M 100.18074693466247 120.99922214144158 l 0.15509545541555642 18.01902714135325 a39.01969460676611,39.01969460676611 0 0,0 -0.6716847801560113,0.0 l 0.15509545541554398 -18.01902714135325" fill="#ffba11" stroke="none" /><path d="M 99.81925306533755 120.99922214144158 l -0.26205744063267544 30.44589619149147 a51.44702397616663,51.44702397616663 0 0,0 -0.8854775380973817,-0.015244298838634028 l 0.786094668622725 -30.43687441537368" fill="#a4ff21" stroke="none" /><path d="M 99.45781275523022 120.99299961872073 l -0.7786407571107374 30.14826570493532 a51.15831902550295,51.15831902550295 0 0,0 -0.8801171193547678,-0.030313013134120693 l 1.2974782281401482 -30.130395893375105" fill="#a7ff21" stroke="none" /><path d="M 99.09653310690486 120.98055641714683 l -1.3030299674397996 30.259319908720688 a51.28736252027149,51.28736252027149 0 0,0 -0.8816833242581354,-0.045572956918346195 l 1.8237013601114238 -30.232407145040142" fill="#a6ff21" stroke="none" /><path d="M 96.22490169976321 120.6578951692458 l -3.3649721191327484 18.413624164467176 a39.71856277155889,39.71856277155889 0 0,0 -0.6714940993604961,-0.12869344231186186 l 3.6814338330649394 -18.352973523806845" fill="#ffc412" stroke="none" /><path d="M 95.86986931433489 120.58985236759428 l -4.199022825269825 20.933298880963026 a42.35028793077191,42.35028793077191 0 0,0 -0.7135187371824329,-0.14952478878931824 l 4.558733023881644 -20.857918111447166" fill="#ffe715" stroke="none" /><path d="M 95.51606077576429 120.51570834832081 l -3.841701635328994 17.57722983524845 a38.992156072467736,38.992156072467736 0 0,0 -0.6544737784416005,-0.148956101189619 l 4.143695563163457 -17.508497000481142" fill="#ffba11" stroke="none" /><path d="M 95.16358092515715 120.4354850818985 l -4.1898336538434116 17.703445835395353 a39.192490222442224,39.192490222442224 0 0,0 -0.6551616645391515,-0.16102279713961903 l 4.493948603125773 -17.628701779941704" fill="#ffbc11" stroke="none" /><path d="M 94.81253420990036 120.34920634021253 l -7.431486938048698 29.151972704198297 a51.08429009727022,51.08429009727022 0 0,0 -0.8502117910088732,-0.22454866146016286 l 7.9321891718690605 -29.019732693434552" fill="#a8ff21" stroke="none" /><path d="M 94.46302465271185 120.25689768951611 l -8.019334008640223 29.338550085949695 a51.414802959873214,51.414802959873214 0 0,0 -0.8516955927515493,-0.240697681868919 l 8.523160769496386 -29.196163610742254" fill="#a4ff21" stroke="none" /><path d="M 94.11515582081647 120.15858648285463 l -5.074940320558515 17.384253555800765 a39.109867226172646,39.109867226172646 0 0,0 -0.6446144663475047,-0.1942170508574045 l 5.373429761346266 -17.294321135837635" fill="#ffbb11" stroke="none" /><line stroke="#e1ed5e" stroke-width="0.3" x1="58.666819895761336" x2="56.23545636021788" y1="174.27360380694188" y2="178.64263932499728" /><path d="M 58.180547188652646 175.14741091055294 a86.0,86.0 0 0,1 -31.652253787137756,-30.449443065178592" fill="none" id="id104" stroke="none" /><text fill="#e1ed5e" style="font-size:6.75px; font-family:Arial;" text-anchor="middle"><textPath startOffset="22.20632615414155" xlink:href="#id104">August</textPath></text><path d="M 85.70375840098266 115.38237550388516 l -10.272764513173911 11.053221233718428 a36.08984394831998,36.08984394831998 0 0,0 -0.4514051784595758,-0.42683177152415064 l 10.461505526024304 -10.874754825448347" fill="#ff910d" stroke="none" /><path d="M 83.95833913139862 113.55231037782056 l -14.288385794540918 12.071109137126621 a39.70480270984061,39.70480270984061 0 0,0 -0.43657132234000723,-0.5258782815362475 l 14.494053116774461 -11.823369598476614" fill="#ffc312" stroke="none" /><path d="M 83.72743513129214 113.27417163493432 l -14.345782552265117 11.702419463228393 a39.51345722252386,39.51345722252386 0 0,0 -0.42539451956186336,-0.5307450705509558 l 14.54509498388184 -11.453746559099178" fill="#ffc111" stroke="none" /><path d="M 83.50135304334701 112.99209946851258 l -33.33589000220096 26.250831351072854 a63.43097581792471,63.43097581792471 0 0,0 -0.6681190203871668,-0.8636338972007046 l 33.7828158398062 -25.673119459758897" fill="#31ff44" stroke="none" /><path d="M 83.28015986056508 112.70617746262583 l -24.111458280139555 18.323408910326247 a51.28381968130727,51.28381968130727 0 0,0 -0.5280737241392167,-0.7074410500591325 l 24.423293270973854 -17.90565498075781" fill="#a6ff21" stroke="none" /><path d="M 83.06392112726016 112.41649034213515 l -24.919268272752547 18.269273316843726 a51.89880707689133,51.89880707689133 0 0,0 -0.5220036574399657,-0.7250174244540268 l 25.230051722568117 -17.83762228693856" fill="#9eff22" stroke="none" /><path d="M 82.85270091963577 112.12312394758628 l -25.771013483954967 18.220081731627857 a52.561313570531055,52.561313570531055 0 0,0 -0.5159495951331379,-0.7432638731284548 l 26.080823986250238 -17.773776596312388" fill="#96ff23" stroke="none" /><path d="M 82.6465618267979 111.8261652097733 l -25.02312001228066 17.052963705267302 a51.28134914897559,51.28134914897559 0 0,0 -0.4908281871091513,-0.7337215432852338 l 25.312951304800542 -16.61970524777625" fill="#a6ff21" stroke="none" /><path d="M 82.44556493220864 111.52570212397912 l -25.082788006063314 16.468587105217217 a51.00600965472151,51.00600965472151 0 0,0 -0.47555850613990125,-0.7380773622984731 l 25.36255137558026 -16.034388142997297" fill="#a9ff21" stroke="none" /><path d="M 82.24976979558568 111.22182372390057 l -25.636347324624147 16.207483919283312 a51.32993305535953,51.32993305535953 0 0,0 -0.46572225192964906,-0.7508925593038972 l 25.911534216221753 -15.763795028614151" fill="#a5ff21" stroke="none" /><path d="M 82.05923443525364 110.91462005526583 l -25.895588019025055 15.754093843728803 a51.311267734756456,51.311267734756456 0 0,0 -0.4525632417450076,-0.7585220245536638 l 26.162932136468296 -15.306009725289028" fill="#a5ff21" stroke="none" /><line stroke="#e1ed5e" stroke-width="0.3" x1="26.63291911575756" x2="22.317208475507996" y1="142.92168965132927" y2="145.44649492493687" /><path d="M 25.769776987707644 143.4266507060508 a86.0,86.0 0 0,1 -11.730757126820373,-40.83630448921669" fill="none" id="id105" stroke="none" /><text fill="#e1ed5e" style="font-size:6.75px; font-family:Arial;" text-anchor="middle"><textPath startOffset="21.46611528233685" xlink:href="#id105">September</textPath></text><path d="M 81.87401531095188 110.60418214915194 l -26.08133051011012 15.258270607971339 a51.216727538297114,51.216727538297114 0 0,0 -0.4386298195890622,-0.7647880626710621 l 26.34011232585156 -14.80706269944197" fill="#a6ff21" stroke="none" /><path d="M 81.69416730710424 110.29060199501025 l -15.969579310745349 8.977279945227908 a39.31990771202675,39.31990771202675 0 0,0 -0.3265866420555576,-0.5928496188335471 l 16.121742362252423 -8.701059807996538" fill="#ffbe11" stroke="none" /><path d="M 81.51974371655577 109.97397251340807 l -20.990089123748334 11.328553498568327 a44.85204322050467,44.85204322050467 0 0,0 -0.36084000967110796,-0.6825733121895905 l 21.181981641644327 -10.96556517129261" fill="#f6ff19" stroke="none" /><path d="M 81.35079622478065 109.6543875284942 l -55.48099644045652 28.721603697360756 a83.4745667049736,83.4745667049736 0 0,0 -0.649596415711514,-1.2817153554267626 l 55.9671715259543 -27.762334130231306" fill="#4cd7ff" stroke="none" /><path d="M 81.18737489456691 109.33194174019688 l -27.089383006604166 13.437600684579731 a51.23911016939341,51.23911016939341 0 0,0 -0.3851393654380184,-0.7935011673142013 l 27.316675628656903 -12.969310561300246" fill="#a6ff21" stroke="none" /><path d="M 81.02952815118164 109.00673069616217 l -28.086501069930154 13.334805446607184 a52.09129425820116,52.09129425820116 0 0,0 -0.37760082036971465,-0.8133185741303721 l 28.311876507139697 -12.849366805197986" fill="#9cff22" stroke="none" /><path d="M 80.87730276802145 108.67885076344099 l -27.205374759216497 12.347180140669675 a50.87616563777155,50.87616563777155 0 0,0 -0.35506455470969195,-0.8005768365654645 l 27.41388039865747 -11.877054967611514" fill="#aaff21" stroke="none" /><path d="M 80.73074385275274 108.34839909993369 l -27.902993070680786 12.08896287727252 a51.40920988369368,51.40920988369368 0 0,0 -0.34480651284747754,-0.8150207421741292 l 28.10695056472057 -11.606867609432232" fill="#a4ff21" stroke="none" /><path d="M 80.45479744820244 107.68017299344265 l -28.225775575350138 11.091153377320222 a51.32668940173448,51.32668940173448 0 0,0 -0.31603974043673705,-0.825080034976185 l 28.412509595380385 -10.60364977551088" fill="#a5ff21" stroke="none" /><path d="M 80.20201598880116 107.00284435728193 l -28.618312564879776 10.122727068904394 a51.35584651056013,51.35584651056013 0 0,0 -0.2876151635387656,-0.8359442949174158 l 28.78831855936177 -9.628610070897683" fill="#a5ff21" stroke="none" /><path d="M 80.0844068197444 106.66101706037122 l -28.715133082407363 9.604132280748402 a51.27867607420244,51.27867607420244 0 0,0 -0.2727726416721937,-0.8395078686663187 l 28.876197975095803 -9.108425512104281" fill="#a6ff21" stroke="none" /><path d="M 79.97269907076064 106.31721596034903 l -29.1596583206046 9.197837471564073 a51.5759037074575,51.5759037074575 0 0,0 -0.25977856171670555,-0.8489713703771855 l 29.313663654827437 -8.69453912863484" fill="#a2ff22" stroke="none" /><path d="M 79.86692584326677 105.97154293290107 l -29.26737430224761 8.680809538502963 a51.52762114531081,51.52762114531081 0 0,0 -0.24489695209739515,-0.8525184177128357 l 29.41246389123111 -8.175733645285531" fill="#a3ff22" stroke="none" /><path d="M 79.76711848015287 105.62410040840567 l -29.10851670013873 8.091245950347982 a51.21214996506005,51.21214996506005 0 0,0 -0.22877668109027566,-0.8513631373512606 l 29.24348145757078 -7.588991879821183" fill="#a6ff21" stroke="none" /><path d="M 79.58551787078972 104.9243191809786 l -18.81566636815831 4.538657714321368 a40.355327812403814,40.355327812403814 0 0,0 -0.15707722176537214,-0.6766845602723895 l 18.891004155854237 -4.214104496700404" fill="#ffcc13" stroke="none" /><path d="M 79.50377843672027 104.57218783832718 l -29.44860726010996 6.569238313249519 a51.17242717410163,51.17242717410163 0 0,0 -0.1843814710919976,-0.861368849189414 l 29.557322769926397 -6.061355644643941" fill="#a7ff21" stroke="none" /><path d="M 79.35854240842038 103.8639653848113 l -29.631641110683915 5.5468774450085725 a51.14634313316157,51.14634313316157 0 0,0 -0.154543687292367,-0.86676307093606 l 29.722731240315472 -5.035995623339298" fill="#a7ff21" stroke="none" /><path d="M 79.29508885075956 103.50808413554451 l -30.28496227989459 5.131255814326912 a51.71658715623697,51.71658715623697 0 0,0 -0.1411573355341384,-0.8789868631162929 l 30.36880136979002 -4.609189721517406" fill="#a0ff22" stroke="none" /><path d="M 79.23777060512086 103.15116336523772 l -44.48785009162574 6.75209201963134 a65.99732828087167,65.99732828087167 0 0,0 -0.16080075865999272,-1.1246401315478995 l 44.59748490130233 -5.98530641610304" fill="#35ff64" stroke="none" /><path d="M 79.18660465613746 102.79330883721812 l -14.898468199939659 1.9994826503008012 a36.03204196286942,36.03204196286942 0 0,0 -0.07720892890873143,-0.6154311299453492 l 14.930678638095237 -1.7427337660680433" fill="#ff900d" stroke="none" /><path d="M 79.04373962182676 101.35467743843564 l -32.94150832933008 2.1294409077042205 a54.01026339777868,54.01026339777868 0 0,0 -0.051987833942604374,-0.9282776984967236 l 32.97328251416021 -1.562091492872059" fill="#85ff25" stroke="none" /><path d="M 79.0095281055655 100.63252640178507 l -30.14824458201436 0.9084865152866869 a51.161929631994965,51.161929631994965 0 0,0 -0.018949251504367447,-0.8804972577538936 l 30.159415896203733 -0.3893994417426643" fill="#a7ff21" stroke="none" /><line stroke="#e1ed5e" stroke-width="0.3" x1="15.007084014347285" x2="10.007500721073583" y1="101.09737516637583" y2="101.16192664675087" /><path d="M 14.007167355692545 101.11028546245083 a86.0,86.0 0 0,1 10.666146001902534,-42.60595125391555" fill="none" id="id106" stroke="none" /><text fill="#e1ed5e" style="font-size:6.75px; font-family:Arial;" text-anchor="middle"><textPath startOffset="22.20632615414155" xlink:href="#id106">October</textPath></text><path d="M 79.00175016825051 100.2711162175752 l -19.076664569318663 0.24630591517986905 a40.07825457672034,40.07825457672034 0 0,0 -0.0029690404417615284,-0.6899004361725987 l 19.078077907049927 0.08210399919640493" fill="#ffc912" stroke="none" /><path d="M 79.01574976396665 99.18683210126434 l -30.32291041515096 -1.175053531505103 a51.345669326069796,51.345669326069796 0 0,0 0.04182567309547492,-0.8828738531738786 l 30.298191133821987 1.6968384913019905" fill="#a5ff21" stroke="none" /><path d="M 79.03285615573316 98.82574320788736 l -30.26914757813869 -1.6952119181844725 a51.316580258246375,51.316580258246375 0 0,0 0.0569843963474716,-0.8815233896045342 l 30.235482590786805 2.2159943720420188" fill="#a5ff21" stroke="none" /><path d="M 79.05617556472873 98.46500227214037 l -30.047018995957885 -2.202181651698572 a51.127611166014006,51.127611166014006 0 0,0 0.07188424336917182,-0.8771698452155732 l 30.004660268769214 2.7190654141219235" fill="#a7ff21" stroke="none" /><path d="M 79.26566170972629 96.67025291283419 l -30.075731521879746 -4.829890302134066 a51.46108118414118,51.46108118414118 0 0,0 0.14798280461271252,-0.8734028896505169 l 29.98813685574681 5.346878980100411" fill="#a3ff21" stroke="none" /><path d="M 79.32604984820605 96.31383870115002 l -30.10322417234889 -5.36739902630988 a51.57798354827085,51.57798354827085 0 0,0 0.1633653446620144,-0.8727042035702569 l 30.006373103777015 5.884781307342711" fill="#a2ff22" stroke="none" /><path d="M 79.3925641242962 95.95851677861259 l -29.668219629895717 -5.818463420964793 a51.23338837425992,51.23338837425992 0 0,0 0.17717165411425176,-0.8639519066933503 l 29.56366867986647 6.328290983821546" fill="#a6ff21" stroke="none" /><path d="M 79.54389044137918 95.25157060432595 l -29.91194089553383 -6.943389652025 a51.70724455234883,51.70724455234883 0 0,0 0.20871801556818337,-0.8652709221854563 l 29.787990079704834 7.457245805869853" fill="#a0ff22" stroke="none" /><path d="M 79.71946130924805 94.55025226153421 l -43.871732133256714 -11.789128317622993 a66.42810173077464,66.42810173077464 0 0,0 0.3062437644620292,-1.1017217603888279 l 43.662301598228325 12.542561381430763" fill="#35ff6a" stroke="none" /><path d="M 79.81627453868168 94.20196356495316 l -29.306582865341902 -8.418695327858142 a51.49180595285317,51.49180595285317 0 0,0 0.2520501904296004,-0.8497879412670727 l 29.157326777800595 8.921912655871754" fill="#a3ff21" stroke="none" /><path d="M 80.2630227832202 92.82701384747504 l -28.604329000837396 -10.395637263584513 a51.434797710912655,51.434797710912655 0 0,0 0.30957725819077847,-0.8295131398220147 l 28.42114715414499 10.886473540435869" fill="#a4ff21" stroke="none" /><path d="M 80.38941819471856 92.48833698450439 l -28.370130334938437 -10.866931990990413 a51.380166328020735,51.380166328020735 0 0,0 0.3234661617483756,-0.8231860995087508 l 28.17887062330837 11.353667095394925" fill="#a4ff21" stroke="none" /><path d="M 80.52162464483688 92.15188598940014 l -28.40066665460524 -11.4430318657609 a51.619288768794505,51.619288768794505 0 0,0 0.3391591613548763,-0.8213008110841918 l 28.199485806364162 11.930207247298403" fill="#a2ff22" stroke="none" /><path d="M 80.65960295795068 91.81776055985345 l -28.04974729852553 -11.86685816910305 a51.456701172594975,51.456701172594975 0 0,0 0.35213361901671053,-0.812772942652452 l 27.841322969666138 12.347930256342101" fill="#a3ff21" stroke="none" /><path d="M 80.95270993114464 91.15688171328213 l -27.68210660575379 -12.852019487039078 a51.52004965637425,51.52004965637425 0 0,0 0.3803695977184244,-0.8011553791364477 l 27.456778814193616 13.326617281816057" fill="#a3ff22" stroke="none" /><path d="M 81.10775173730289 90.83032412892265 l -27.50343269517739 -13.349261541027584 a51.57190857157778,51.57190857157778 0 0,0 0.3945005107098112,-0.7952889568435086 l 27.269572171514167 13.820710086370054" fill="#a2ff22" stroke="none" /><path d="M 81.26839172434947 90.50648371742162 l -27.19380434965236 -13.782309590269804 a51.486965290911044,51.486965290911044 0 0,0 0.4074594260267639,-0.7870819193532269 l 26.952535490465483 14.248364231883366" fill="#a3ff21" stroke="none" /><path d="M 81.43458229118936 90.18545643968196 l -16.20207744855924 -8.565171943913045 a39.32674232038818,39.32674232038818 0 0,0 0.3215277685968006,-0.5957421236047199 l 16.052241580743967 8.842795050850237" fill="#ffbe11" stroke="none" /><path d="M 81.6062741919709 89.86733742301443 l -55.18117742408733 -30.39798773095671 a84.0,84.0 0 0,0 0.7085694348302773,-1.2604659602608617 l 54.64975034796462 31.34333720115236" fill="#4dd2ff" stroke="none" /><line stroke="#e1ed5e" stroke-width="0.3" x1="26.266209847984243" x2="21.928928074336255" y1="57.711370442889674" y2="55.22380399835377" /><path d="M 25.398753493254645 57.213857153982495 a86.0,86.0 0 0,1 29.58750427330803,-30.492523968695096" fill="none" id="id107" stroke="none" /><text fill="#e1ed5e" style="font-size:6.75px; font-family:Arial;" text-anchor="middle"><textPath startOffset="21.46611528233685" xlink:href="#id107">November</textPath></text><path d="M 81.78341655067845 89.55222093294921 l -52.934440812400354 -30.359553655294945 a82.02259845557421,82.02259845557421 0 0,0 0.7129729439462065,-1.2187018747794776 l 52.40400819398382 31.266234942428316" fill="#4ae6ff" stroke="none" /><path d="M 81.96595687620814 89.24020034530311 l -26.32474953212843 -15.706352090957035 a51.654231909059575,51.654231909059575 0 0,0 0.4621435298748704,-0.7596424506549075 l 26.050490203967342 16.157162314819015" fill="#a1ff22" stroke="none" /><path d="M 82.15384107792192 88.93136811851018 l -15.409866382212332 -9.557582618892882 a39.133156576685735,39.133156576685735 0 0,0 0.35997361535245226,-0.5693918116368687 l 15.243065170613917 9.821422078243966" fill="#ffbc11" stroke="none" /><path d="M 82.54541684631803 88.32363383020206 l -25.40699722847888 -16.9961894995001 a51.56772751891856,51.56772751891856 0 0,0 0.49990131828155465,-0.7335434999954252 l 25.110671444528585 17.43101102276594" fill="#a2ff22" stroke="none" /><path d="M 82.95767976084542 87.72973835380427 l -24.77303854115543 -17.83628405085922 a51.5259965816762,51.5259965816762 0 0,0 0.5244300903332823,-0.7153220538482138 l 24.46234583830851 18.260068548378936" fill="#a3ff22" stroke="none" /><path d="M 83.39014120810768 87.1503855733568 l -24.10006816021424 -18.64414305952644 a51.46994184029664,51.46994184029664 0 0,0 0.5481448792689515,-0.6960883316875484 l 23.775569200351317 19.056223785167035" fill="#a3ff21" stroke="none" /><path d="M 83.84228863543731 86.58626213691792 l -23.547736951828593 -19.548756851381533 a51.60473509094549,51.60473509094549 0 0,0 0.5732779519298165,-0.67858027391071 l 23.20774838641165 19.95119607492136" fill="#a2ff22" stroke="none" /><path d="M 84.5562425177563 85.77008943001954 l -22.51310199481437 -20.743619446717364 a51.61270176216313,51.61270176216313 0 0,0 0.607635546523798,-0.6481832348683129 l 22.152699126320115 21.128072098463726" fill="#a2ff22" stroke="none" /><path d="M 84.80347519578584 85.50635884689758 l -22.14575006767409 -21.121444454073647 a51.60309889351739,51.60309889351739 0 0,0 0.618587814055257,-0.6375091177879146 l 21.778897989915713 21.499517767411685" fill="#a2ff22" stroke="none" /><line stroke="#e1ed5e" stroke-width="0.3" x1="56.762969772571076" x2="54.21961505331055" y1="26.818313649435495" y2="22.513508569990535" /><path d="M 56.25429882871897 25.957352633546506 a86.0,86.0 0 0,1 42.265352541879196,-11.944610805530505" fill="none" id="id108" stroke="none" /><text fill="#e1ed5e" style="font-size:6.75px; font-family:Arial;" text-anchor="middle"><textPath startOffset="22.20632615414155" xlink:href="#id108">December</textPath></text></svg>