<?xml version="1.0" encoding="utf-8" ?>
<svg baseProfile="full" height="200mm" version="1.1" viewBox="0,0,200,200" width="200mm" xmlns="http://www.w3.org/2000/svg" xmlns:ev="http://www.w3.org/2001/xml-events" xmlns:xlink="http://www.w3.org/1999/xlink"><defs /><rect fill="#1a1a1a" height="200" width="200" x="0" y="0" /><text alignment-baseline="middle" fill="#e1ed5e" style="dominant-baseline: central; font-size:9.0px; font-family:Arial;" text-anchor="middle" x="100.0" y="100.0">2022</text><line stroke="#e1ed5e" stroke-width="0.3" x1="100.0" x2="100.0" y1="15.0" y2="10.0" /><path d="M 100.0 14.0 a86.0,86.0 0 0,1 42.46469731375804,11.215312516191453" fill="none" id="id109" stroke="none" /><text fill="#e1ed5e" style="font-size:6.75px; font-family:Arial;" text-anchor="middle"><textPath startOffset="22.20632615414155" xlink:href="#id109">January</textPath></text><path d="M 100.0 79.0 l 0.0 -30.078290002168238 a51.07829000216824,51.07829000216824 0 0,0 0.8792287976383318,0.007567799843711076 l -0.5177483183658035 30.073833578933087" fill="#b3ff20" stroke="none" /><path d="M 100.72285384407766 79.0124445844662 l 1.035355643408227 -30.0608264296389 a51.07865101598165,51.07865101598165 0 0,0 0.8784534801717979,0.03782805473217921 l -1.5526499559693565 30.038550648382525" fill="#b3ff20" stroke="none" /><path d="M 101.44485096284872 79.0497635885617 l 2.0947135819077496 -30.373198263088277 a51.44534443423325,51.44534443423325 0 0,0 0.8829241355110067,0.0685319058177053 l -2.6172279067810975 30.332641095082106" fill="#afff20" stroke="none" /><path d="M 102.88285421437855 79.19881850522331 l 4.145766236035944 -29.913699929946127 a51.199616242308686,51.199616242308686 0 0,0 0.8719319503999243,0.12850010403863388 l -4.660067166864524 29.837905341746524" fill="#b2ff20" stroke="none" /><path d="M 105.01212808612495 79.60689891045804 l 7.197949874603432 -29.286665645396724 a51.15823713386716,51.15823713386716 0 0,0 0.8533464637398737,0.21753701415890014 l -7.70100522702833 29.158425635068955" fill="#b2ff20" stroke="none" /><path d="M 105.36241919743992 79.69619591428918 l 7.715085583025678 -29.211738287269604 a51.21337782038519,51.21337782038519 0 0,0 0.8503910926643765,0.23244400933480397 l -8.216774564913765 29.074607737108508" fill="#b2ff20" stroke="none" /><path d="M 109.08828744355905 81.06846463323043 l 13.324476359171753 -27.755811752644185 a51.78841919122104,51.78841919122104 0 0,0 0.8003252411266477,0.39271612004648515 l -13.800272867308832 27.52234047246287" fill="#abff21" stroke="none" /><path d="M 110.05341064243156 81.56283822128135 l 14.671139001531223 -26.90571119294071 a51.64571119096742,51.64571119096742 0 0,0 0.7768398127604488,0.4323105147345702 l -15.132102903363707 26.64918528064596" fill="#acff20" stroke="none" /><line stroke="#e1ed5e" stroke-width="0.3" x1="143.23703022742887" x2="145.7803849466894" y1="26.81831364943548" y2="22.513508569990506" /><path d="M 143.74570117128098 25.957352633546492 a86.0,86.0 0 0,1 28.547481713284135,27.462654790039103" fill="none" id="id110" stroke="none" /><text fill="#e1ed5e" style="font-size:6.75px; font-family:Arial;" text-anchor="middle"><textPath startOffset="19.985693538727396" xlink:href="#id110">February</textPath></text><path d="M 110.99172775467656 82.1063720568725 l 15.94835796374091 -25.962613892577416 a51.469779156972436,51.469779156972436 0 0,0 0.7509216459678874,0.47022706581540685 l -16.392898762081064 25.684242485439064" fill="#afff20" stroke="none" /><path d="M 111.60114157652 82.49532879139004 l 16.76238947946461 -25.292348565295917 a51.34271901148103,51.34271901148103 0 0,0 0.7324779805830339,0.49457240220091486 l -17.195272154454184 25.000064250796335" fill="#b0ff20" stroke="none" /><path d="M 112.19680574252982 82.90503203632743 l 17.797362677526475 -24.94467414113882 a51.64282764829336,51.64282764829336 0 0,0 0.7191993724989262,0.5225289302352359 l -18.22410736637919 24.63462597608691" fill="#acff20" stroke="none" /><path d="M 113.06298171725822 83.55741782278167 l 18.362380967956266 -23.11302002636359 a50.51929419128186,50.51929419128186 0 0,0 0.6762286620995226,0.54679654953324 l -18.75751302862028 22.793517379566218" fill="#baff1f" stroke="none" /><path d="M 114.16331599549186 84.49514656593476 l 20.32467951344313 -22.249816148322154 a51.13547603669655,51.13547603669655 0 0,0 0.6447748053768942,0.5992479115010066 l -20.704662202614873 21.896663650746504" fill="#b3ff20" stroke="none" /><path d="M 114.68862486808459 84.99185889309783 l 21.218888836545688 -21.6804554987642 a51.33617302976066,51.33617302976066 0 0,0 0.6262137946019294,0.6235246335578201 l -21.58893843131494 21.31199501455626" fill="#b0ff20" stroke="none" /><path d="M 115.68641384162765 86.03803664274999 l 22.469220043515016 -19.999117075505673 a51.08040114698738,51.08040114698738 0 0,0 0.5789310040328767,0.6618182159527795 l -22.81014291112574 19.609383303349947" fill="#b3ff20" stroke="none" /><path d="M 115.9244219780498 86.31012108654704 l 22.763156268637253 -19.568989909661703 a51.01843849028195,51.01843849028195 0 0,0 0.5667647722020535,0.6708707234756798 l -23.096631654326423 19.174260236556915" fill="#b4ff20" stroke="none" /><path d="M 116.60985879189232 87.15038557335679 l 24.107938080631005 -18.65023133783097 a51.47989185437099,51.47989185437099 0 0,0 0.5361852830100768,0.7055569815088544 l -24.4253993038652 18.23248958044108" fill="#aeff20" stroke="none" /><path d="M 116.82858285166822 87.43820079747576 l 5.66395505142572 -4.22789409395098 a28.067918738513942,28.067918738513942 0 0,0 0.28567445825475246,0.3896596400120689 l -5.735892122194099 4.129772010267418" fill="#ff0000" stroke="none" /><path d="M 117.04232023915458 87.72973835380427 l 12.500312579823468 -9.00007181306639 a36.403217431226665,36.403217431226665 0 0,0 0.361756765544396,0.5116792899218021 l -12.653381965171747 8.783566022812794" fill="#ff820b" stroke="none" /><path d="M 117.2510076193507 88.02491185347247 l 19.29270011494209 -13.392364640880556 a44.48539351169987,44.48539351169987 0 0,0 0.4312446549562363,0.632798318352801 l -19.52036923556706 13.058288299257349" fill="#fff417" stroke="none" /><path d="M 117.45458315368197 88.32363383020206 l 25.123501338560352 -16.806542929932885 a51.22664726304128,51.22664726304128 0 0,0 0.48397805601524463,0.7371317831370763 l -25.40907602993352 16.371593082818134" fill="#b2ff20" stroke="none" /><line stroke="#e1ed5e" stroke-width="0.3" x1="172.23445277983987" x2="176.4835382374775" y1="55.19839476539836" y2="52.563006222186495" /><path d="M 173.08426987136738 54.67131705675599 a86.0,86.0 0 0,1 12.851231095245387,41.99856678651699" fill="none" id="id111" stroke="none" /><text fill="#e1ed5e" style="font-size:6.75px; font-family:Arial;" text-anchor="middle"><textPath startOffset="22.20632615414155" xlink:href="#id111">March</textPath></text><path d="M 118.56541770881063 90.18545643968196 l 26.123160687061905 -13.809918123990435 a50.54883014390546,50.54883014390546 0 0,0 0.40003517784326886,0.7727406349534377 l -26.35700529806529 13.358204766776652" fill="#baff1f" stroke="none" /><path d="M 118.73160827565052 90.50648371742162 l 26.770958255714017 -13.568003577739841 a51.012912671294394,51.012912671294394 0 0,0 0.39022445860598354,0.7866686967304339 l -27.00054272727341 13.105175292510458" fill="#b4ff20" stroke="none" /><path d="M 119.04729006885535 91.15688171328212 l 27.485507893028746 -12.760744262828235 a51.30329583195612,51.30329583195612 0 0,0 0.364980644258963,0.80418646960689 l -27.701090854251056 12.285735784379282" fill="#b1ff20" stroke="none" /><path d="M 119.85752413597 93.16781622104841 l 12.53431285570117 -4.312558221591338 a34.255457637486934,34.255457637486934 0 0,0 0.18703921313336858,0.5592234404683698 l -12.60668936260631 4.096161678200654" fill="#ff6109" stroke="none" /><path d="M 119.97218684219823 93.5106431181261 l 20.19097742081365 -6.560446250216243 a42.230050028433354,42.230050028433354 0 0,0 0.2186803028945922,0.6932763199574472 l -20.300913207476448 6.211919763832376" fill="#ffd513" stroke="none" /><path d="M 120.08093135843002 93.85539295169968 l 29.63329472874544 -9.067555105115689 a51.98955811341946,51.98955811341946 0 0,0 0.25448666599180825,0.8580025256259384 l -29.784987291848953 8.55612319274322" fill="#a8ff21" stroke="none" /><path d="M 120.18372546131832 94.20196356495316 l 28.804004552411012 -8.274323201145348 a50.96890226038195,50.96890226038195 0 0,0 0.23497447754833203,0.8453282159254889 l -28.942165800525707 7.777283681800908" fill="#b5ff20" stroke="none" /><path d="M 120.37134235888165 94.90015583598534 l 29.036783435193467 -7.269185698956467 a50.932855743951976,50.932855743951976 0 0,0 0.2055921693397356,0.8523122715326557 l -29.157608404794022 6.768288195764406" fill="#b5ff1f" stroke="none" /><path d="M 120.45610955862082 95.25157060432595 l 29.221833891278727 -6.783196709384823 a50.99878886834759,50.99878886834759 0 0,0 0.19113766381128375,0.8568326685364439 l -29.33426594209205 6.279185871298415" fill="#b4ff20" stroke="none" /><path d="M 120.53481517161879 95.60439243477599 l 18.648243978086388 -3.991775023206011 a40.07069142171113,40.07069142171113 0 0,0 0.13856961067702647,0.6757146336567551 l -18.71419288467841 3.670184733385844" fill="#ffb711" stroke="none" /><path d="M 120.6074358757038 95.95851677861258 l 19.13080574266473 -3.751889894839293 a40.49524060242835,40.49524060242835 0 0,0 0.1282624577984093,0.6851831783081395 l -19.192553924372998 3.422028639068591" fill="#ffbd11" stroke="none" /><path d="M 120.67395015179393 96.31383870115 l 18.816358234837935 -3.354953020651372 a40.11311191283437,40.11311191283437 0 0,0 0.11535029319271588,0.6808039600291159 l -18.871320389550874 3.0305632723064178" fill="#ffb811" stroke="none" /><path d="M 120.73433829027371 96.67025291283417 l 30.279267611293847 -4.862576356126839 a51.66722510915378,51.66722510915378 0 0,0 0.13345916497698182,0.879329148297603 l -30.358482669710128 4.340648095437154" fill="#acff20" stroke="none" /><path d="M 120.83666639777658 97.38593545837742 l 29.59888958982689 -3.7133294871210483 a50.83090814626141,50.83090814626141 0 0,0 0.10144311509127678,0.8691026598356862 l -29.658423057921752 3.2032830889605095" fill="#b7ff1f" stroke="none" /><path d="M 120.91429891909075 98.10471618934814 l 29.744829816857496 -2.6955192053330252 a50.866715999924295,50.866715999924295 0 0,0 0.07151743077642525,0.8726938024817923 l -29.786821731453415 2.1831114856434644" fill="#b6ff1f" stroke="none" /><path d="M 120.94382443527127 98.46500227214037 l 29.83288662466091 -2.1864876362899777 a50.91290444847375,50.91290444847375 0 0,0 0.05653613533271774,0.8745889901113441 l -29.866103350998046 1.6726395819255981" fill="#b6ff1f" stroke="none" /><line stroke="#e1ed5e" stroke-width="0.3" x1="184.98032266829074" x2="189.97916517819016" y1="98.17113171792111" y2="98.06355123074" /><path d="M 185.9800911702706 98.14961562048488 a86.0,86.0 0 0,1 -9.607161424134198,41.387399972396054" fill="none" id="id112" stroke="none" /><text fill="#e1ed5e" style="font-size:6.75px; font-family:Arial;" text-anchor="middle"><textPath startOffset="21.466115282336823" xlink:href="#id112">April</textPath></text><path d="M 120.99824983174949 100.27111621757518 l 29.872066126193737 0.38568936193167963 a50.87455591187254,50.87455591187254 0 0,0 -0.018842814610029904,0.8755515535098075 l -29.8610012488987 -0.899830731231602" fill="#b6ff1f" stroke="none" /><path d="M 120.9904718944345 100.63252640178507 l 29.72914091488418 0.8958572549309335 a50.74263572312066,50.74263572312066 0 0,0 -0.033823270172953994,0.87282831284148 l -29.709315511860023 -1.4074628147864197" fill="#b8ff1f" stroke="none" /><path d="M 120.95626037817324 101.35467743843564 l 29.838368835263505 1.928844380219338 a50.900647073137534,50.900647073137534 0 0,0 -0.06404620294687151,0.8738595542649108 l -29.8007460736523 -2.442177070981019" fill="#b6ff1f" stroke="none" /><path d="M 120.92983693683757 101.71520430193887 l 29.74848745544712 2.437894466819821 a50.84821326843946,50.84821326843946 0 0,0 -0.07899730887962914,0.8717287207471298 l -29.702115550290415 -2.949604576115521" fill="#b6ff1f" stroke="none" /><path d="M 120.8583938346157 102.4346265915055 l 29.646542489067347 3.460393991137386 a50.84781077616875,50.84781077616875 0 0,0 -0.10895594014425933,0.8684860456555147 l -29.582585039676243 -3.970197791080296" fill="#b6ff1f" stroke="none" /><path d="M 120.70491114924044 103.5080841355445 l 29.3492040106387 4.972707984035841 a50.76749234908081,50.76749234908081 0 0,0 -0.1533989525270093,0.8603427904444123 l -29.259258615772502 -5.477169525213472" fill="#b7ff1f" stroke="none" /><path d="M 120.64145759157962 103.86396538481128 l 29.32525399052912 5.489523490164147 a50.83463406442432,50.83463406442432 0 0,0 -0.16840804281045657,0.8587089820894652 l -29.226416014743002 -5.993496199321557" fill="#b7ff1f" stroke="none" /><path d="M 120.5718875245553 104.21870165774334 l 29.13380420993508 5.9745041853897565 a50.74009495620467,50.74009495620467 0 0,0 -0.1828237171463935,0.8540915413585569 l -29.02664645406424 -6.475109546164482" fill="#b8ff1f" stroke="none" /><path d="M 120.49622156327973 104.57218783832717 l 29.12121494268693 6.496205380449582 a50.836987852046235,50.836987852046235 0 0,0 -0.1978755531819819,0.8524427042236065 l -29.005078823574394 -6.996516742021753" fill="#b6ff1f" stroke="none" /><path d="M 120.41448212921028 104.9243191809786 l 29.044479674792612 7.006020895307284 a50.87751877858875,50.87751877858875 0 0,0 -0.21268907169050794,0.849587116008918 l -28.919579288807043 -7.504935850713598" fill="#b6ff1f" stroke="none" /><path d="M 120.32669344350535 105.2749913415812 l 28.987756436929857 7.522628539740522 a50.94795424388262,50.94795424388262 0 0,0 -0.22759645686046398,0.8469710839379394 l -28.853971903727615 -8.02049055685401" fill="#b5ff1f" stroke="none" /><path d="M 120.23288151984713 105.62410040840565 l 28.858901426739884 8.021860808162966 a50.953070667025614,50.953070667025614 0 0,0 -0.24216626789676488,0.8430125477783244 l -28.71654252195702 -8.517430831445873" fill="#b5ff20" stroke="none" /><path d="M 120.13307415673323 105.97154293290107 l 28.73074168278508 8.521642354129186 a50.967881240665186,50.967881240665186 0 0,0 -0.2567160617785376,0.8389629433841881 l -28.57979884850041 -9.014932270065431" fill="#b5ff20" stroke="none" /><path d="M 120.02730092923936 106.31721596034902 l 28.552615135128608 9.006357705345971 a50.939377250895184,50.939377250895184 0 0,0 -0.270967769872938,0.8339530444430399 l -28.393355114239423 -9.496509649766805" fill="#b5ff1f" stroke="none" /><path d="M 119.9155931802556 106.66101706037122 l 28.356445725716778 9.484164847158517 a50.90045814103186,50.90045814103186 0 0,0 -0.28506478983693434,0.8285317151364351 l -28.18899010493661 -9.970869265384254" fill="#b6ff1f" stroke="none" /><path d="M 119.79798401119884 107.00284435728193 l 28.234903267954394 9.987109440867886 a50.94915887858312,50.94915887858312 0 0,0 -0.2995707163664364,0.8242899509372976 l -28.05880829058273 -10.471647188811316" fill="#b5ff1f" stroke="none" /><path d="M 119.67450827220406 107.3425965602758 l 27.964790684367735 10.43655948331705 a50.84880721016027,50.84880721016027 0 0,0 -0.3130972213390791,0.8173980461330962 l -27.78099918343515 -10.91638109628329" fill="#b6ff1f" stroke="none" /><path d="M 119.41010516605496 108.01547362559984 l 27.848216903495192 11.500022601645556 a51.12928317339252,51.12928317339252 0 0,0 -0.3429290174910917,0.8105828977547976 l -27.64613690481179 -11.977680025066517" fill="#b3ff20" stroke="none" /><path d="M 119.26925614724726 108.34839909993367 l 27.413041675509096 11.876691591074088 a50.87525158141247,50.87525158141247 0 0,0 -0.35505817551406693,0.8005624531633702 l -27.204542415263756 -12.346802380730146" fill="#b6ff1f" stroke="none" /><path d="M 118.97047184881838 109.00673069616215 l 26.948922245886695 12.794709965826884 a50.83201322949017,50.83201322949017 0 0,0 -0.3820794165710849,0.7871967663214015 l -26.724689572700896 -13.256695688113561" fill="#b7ff1f" stroke="none" /><path d="M 118.81262510543309 109.33194174019688 l 26.847466478118108 13.317598774310936 a50.96906560784309,50.96906560784309 0 0,0 -0.39663964292307824,0.7826076446999075 l -26.61424816540876 -13.777760630713537" fill="#b5ff20" stroke="none" /><path d="M 118.64920377521936 109.65438752849418 l 55.79014261152895 28.881643609758967 a83.82268181330585,83.82268181330585 0 0,0 -0.674363421248614,1.275641452511672 l -55.28472668205544 -29.837700077356775" fill="#4dd4ff" stroke="none" /><line stroke="#e1ed5e" stroke-width="0.3" x1="174.80103733775053" x2="179.2010983576182" y1="140.37084112569926" y2="142.7455964860345" /><path d="M 175.68104954172406 140.8457921977663 a86.0,86.0 0 0,1 -30.038265399797805,32.042727171017184" fill="none" id="id113" stroke="none" /><text fill="#e1ed5e" style="font-size:6.75px; font-family:Arial;" text-anchor="middle"><textPath startOffset="22.206326154141568" xlink:href="#id113">May</textPath></text><path d="M 118.30583269289576 110.29060199501025 l 26.10729124677149 14.676182607776335 a50.949640935753266,50.949640935753266 0 0,0 -0.43634243900229686,0.7607998218141432 l -25.850796811616814 -15.123402275448793" fill="#b5ff20" stroke="none" /><path d="M 118.12598468904814 110.60418214915192 l 26.069049547197725 15.251085918702064 a51.202499333563146,51.202499333563146 0 0,0 -0.45160390898212716,0.7569141276623568 l -25.80266476251737 -15.697562140250525" fill="#b2ff20" stroke="none" /><path d="M 117.94076556474637 110.91462005526583 l 27.244132384380773 16.57450751684706 a52.88976401298205,52.88976401298205 0 0,0 -0.47987477352809255,0.7737109303815723 l -26.95479297118472 -17.041014778593905" fill="#9dff22" stroke="none" /><path d="M 117.55443506779139 111.5257021239791 l 25.08807716836857 16.472059806502088 a51.01233696790368,51.01233696790368 0 0,0 -0.48825339601383394,0.7298725799499777 l -24.800820666944013 -16.901469300657872" fill="#b4ff20" stroke="none" /><path d="M 117.35343817320211 111.8261652097733 l 24.741009649007342 16.860708791275005 a50.93995757172098,50.93995757172098 0 0,0 -0.5000341258587541,0.7203364526069066 l -24.44711461598645 -17.28408650606893" fill="#b5ff1f" stroke="none" /><path d="M 117.14729908036423 112.12312394758627 l 24.440283148710815 17.27925666527953 a50.931591192146215,50.931591192146215 0 0,0 -0.5122752983926687,0.7115055846036599 l -24.139228057942542 -17.69739585533432" fill="#b5ff1f" stroke="none" /><path d="M 116.93607887273984 112.41649034213515 l 24.19611628838927 17.739102803514626 a51.00213011962512,51.00213011962512 0 0,0 -0.5251731434723729,0.7035552482497828 l -23.887181878221803 -18.152970931273725" fill="#b4ff20" stroke="none" /><path d="M 116.71984013943494 112.70617746262583 l 24.124810104127732 18.333555577018533 a51.30058947703577,51.30058947703577 0 0,0 -0.5403495554768957,0.6984746403069824 l -23.80565373143277 -18.746108211438766" fill="#b1ff20" stroke="none" /><path d="M 116.498646956653 112.99209946851258 l 23.60011300785542 18.584252179694893 a51.03897073905897,51.03897073905897 0 0,0 -0.5494760510122698,0.6855558594429836 l -23.276719044788294 -18.987735872716126" fill="#b4ff20" stroke="none" /><path d="M 116.27256486870786 113.27417163493432 l 23.16194903818504 18.89411346109964 a50.89085824676815,50.89085824676815 0 0,0 -0.55956679704902,0.6740342541503523 l -22.833286241242476 -19.29000897236376" fill="#b6ff1f" stroke="none" /><path d="M 116.0416608686014 113.55231037782055 l 22.91734142977484 19.361020447621073 a51.000894169708936,51.000894169708936 0 0,0 -0.5723210823657099,0.6657387169122156 l -22.58067783783835 -19.752636263694814" fill="#b4ff20" stroke="none" /><path d="M 115.80600337817218 113.82643327865902 l 47.41801013451653 41.47929983597707 a84.0,84.0 0 0,0 -0.9613646014066468,1.080103321036534 l -46.696986683461546 -42.289377326754476" fill="#4dd2ff" stroke="none" /><path d="M 115.56566222782051 114.09645910891815 l 22.08580492251746 20.001182180438658 a50.79647743761993,50.79647743761993 0 0,0 -0.5925133147385364,0.6430561803477889 l -21.738245199783204 -20.378389615587782" fill="#b7ff1f" stroke="none" /><path d="M 115.32070863581623 114.36230785411682 l 21.67074094471688 20.31510815023448 a50.70394977521932,50.70394977521932 0 0,0 -0.6023953946727261,0.6316091629693029 l -21.317838998665188 -20.685124429786292" fill="#b8ff1f" stroke="none" /><line stroke="#e1ed5e" stroke-width="0.3" x1="143.8653032363475" x2="146.44561519142675" y1="172.8068346515853" y2="177.08958963109032" /><path d="M 144.38136562736335 173.6633856474863 a86.0,86.0 0 0,1 -40.68145358897372,12.25698825130547" fill="none" id="id114" stroke="none" /><text fill="#e1ed5e" style="font-size:6.75px; font-family:Arial;" text-anchor="middle"><textPath startOffset="21.466115282336833" xlink:href="#id114">June</textPath></text><line stroke="#e1ed5e" stroke-width="0.3" x1="102.19456741930631" x2="102.32365962044197" y1="184.97166512339345" y2="189.96999836594603" /><path d="M 102.22038585953345 185.97133177190398 a86.0,86.0 0 0,1 -42.740103519485714,-10.115201625700543" fill="none" id="id115" stroke="none" /><text fill="#e1ed5e" style="font-size:6.75px; font-family:Arial;" text-anchor="middle"><textPath startOffset="22.20632615414155" xlink:href="#id115">July</textPath></text><line stroke="#e1ed5e" stroke-width="0.3" x1="58.666819895761336" x2="56.23545636021788" y1="174.27360380694188" y2="178.64263932499728" /><path d="M 58.180547188652646 175.14741091055294 a86.0,86.0 0 0,1 -31.652253787137756,-30.449443065178592" fill="none" id="id116" stroke="none" /><text fill="#e1ed5e" style="font-size:6.75px; font-family:Arial;" text-anchor="middle"><textPath startOffset="22.20632615414155" xlink:href="#id116">August</textPath></text><line stroke="#e1ed5e" stroke-width="0.3" x1="26.63291911575756" x2="22.317208475507996" y1="142.92168965132927" y2="145.44649492493687" /><path d="M 25.769776987707644 143.4266507060508 a86.0,86.0 0 0,1 -11.730757126820373,-40.83630448921669" fill="none" id="id117" stroke="none" /><text fill="#e1ed5e" style="font-size:6.75px; font-family:Arial;" text-anchor="middle"><textPath startOffset="21.46611528233685" xlink:href="#id117">September</textPath></text><line stroke="#e1ed5e" stroke-width="0.3" x1="15.007084014347285" x2="10.007500721073583" y1="101.09737516637583" y2="101.16192664675087" /><path d="M 14.007167355692545 101.11028546245083 a86.0,86.0 0 0,1 10.666146001902534,-42.60595125391555" fill="none" id="id118" stroke="none" /><text fill="#e1ed5e" style="font-size:6.75px; font-family:Arial;" text-anchor="middle"><textPath startOffset="22.20632615414155" xlink:href="#id118">October</textPath></text><line stroke="#e1ed5e" stroke-width="0.3" x1="26.266209847984243" x2="21.928928074336255" y1="57.711370442889674" y2="55.22380399835377" /><path d="M 25.398753493254645 57.213857153982495 a86.0,86.0 0 0,1 29.58750427330803,-30.492523968695096" fill="none" id="id119" stroke="none" /><text fill="#e1ed5e" style="font-size:6.75px; font-family:Arial;" text-anchor="middle"><textPath startOffset="21.46611528233685" xlink:href="#id119">November</textPath></text><line stroke="#e1ed5e" stroke-width="0.3" x1="56.762969772571076" x2="54.21961505331055" y1="26.818313649435495" y2="22.513508569990535" /><path d="M 56.25429882871897 25.957352633546506 a86.0,86.0 0 0,1 42.265352541879196,-11.944610805530505" fill="none" id="id120" stroke="none" /><text fill="#e1ed5e" style="font-size:6.75px; font-family:Arial;" text-anchor="middle"><textPath startOffset="22.20632615414155" xlink:href="#id120">December</textPath></text></svg>