<?xml version="1.0" encoding="utf-8" ?>
<svg baseProfile="full" height="200mm" version="1.1" viewBox="0,0,200,200" width="200mm" xmlns="http://www.w3.org/2000/svg" xmlns:ev="http://www.w3.org/2001/xml-events" xmlns:xlink="http://www.w3.org/1999/xlink"><defs /><rect fill="#1a1a1a" height="200" width="200" x="0" y="0" /><text alignment-baseline="middle" fill="#e1ed5e" style="dominant-baseline: central; font-size:9.0px; font-family:Arial;" text-anchor="middle" x="100.0" y="100.0">2019</text><line stroke="#e1ed5e" stroke-width="0.3" x1="100.0" x2="100.0" y1="15.0" y2="10.0" /><path d="M 100.0 14.0 a86.0,86.0 0 0,1 42.46469731375804,11.215312516191453" fill="none" id="id73" stroke="none" /><text fill="#e1ed5e" style="font-size:6.75px; font-family:Arial;" text-anchor="middle"><textPath startOffset="22.20632615414155" xlink:href="#id73">January</textPath></text><line stroke="#e1ed5e" stroke-width="0.3" x1="143.23703022742887" x2="145.7803849466894" y1="26.81831364943548" y2="22.513508569990506" /><path d="M 143.74570117128098 25.957352633546492 a86.0,86.0 0 0,1 28.547481713284135,27.462654790039103" fill="none" id="id74" stroke="none" /><text fill="#e1ed5e" style="font-size:6.75px; font-family:Arial;" text-anchor="middle"><textPath startOffset="19.985693538727396" xlink:href="#id74">February</textPath></text><line stroke="#e1ed5e" stroke-width="0.3" x1="172.23445277983987" x2="176.4835382374775" y1="55.19839476539836" y2="52.563006222186495" /><path d="M 173.08426987136738 54.67131705675599 a86.0,86.0 0 0,1 12.851231095245387,41.99856678651699" fill="none" id="id75" stroke="none" /><text fill="#e1ed5e" style="font-size:6.75px; font-family:Arial;" text-anchor="middle"><textPath startOffset="22.20632615414155" xlink:href="#id75">March</textPath></text><path d="M 118.73160827565052 90.50648371742162 l 11.344344215978728 -5.749517870794139 a33.71814064386737,33.71814064386737 0 0,0 0.2579276988698104,0.5199665019600139 l -11.441631927801946 5.5533917803351756" fill="#ff7e0b" stroke="none" /><path d="M 118.89224826269711 90.83032412892265 l 11.304582845630467 -5.4868726638982785 a33.5658014047476,33.5658014047476 0 0,0 0.24781440356861836,0.5219603344677969 l -11.397355443040842 5.291469913789942" fill="#ff7c0b" stroke="none" /><line stroke="#e1ed5e" stroke-width="0.3" x1="184.98032266829074" x2="189.97916517819016" y1="98.17113171792111" y2="98.06355123074" /><path d="M 185.9800911702706 98.14961562048488 a86.0,86.0 0 0,1 -9.607161424134198,41.387399972396054" fill="none" id="id76" stroke="none" /><text fill="#e1ed5e" style="font-size:6.75px; font-family:Arial;" text-anchor="middle"><textPath startOffset="21.466115282336823" xlink:href="#id76">April</textPath></text><line stroke="#e1ed5e" stroke-width="0.3" x1="174.80103733775053" x2="179.2010983576182" y1="140.37084112569926" y2="142.7455964860345" /><path d="M 175.68104954172406 140.8457921977663 a86.0,86.0 0 0,1 -30.038265399797805,32.042727171017184" fill="none" id="id77" stroke="none" /><text fill="#e1ed5e" style="font-size:6.75px; font-family:Arial;" text-anchor="middle"><textPath startOffset="22.206326154141568" xlink:href="#id77">May</textPath></text><line stroke="#e1ed5e" stroke-width="0.3" x1="143.8653032363475" x2="146.44561519142675" y1="172.8068346515853" y2="177.08958963109032" /><path d="M 144.38136562736335 173.6633856474863 a86.0,86.0 0 0,1 -40.68145358897372,12.25698825130547" fill="none" id="id78" stroke="none" /><text fill="#e1ed5e" style="font-size:6.75px; font-family:Arial;" text-anchor="middle"><textPath startOffset="21.466115282336833" xlink:href="#id78">June</textPath></text><path d="M 100.90346689309514 120.98055641714683 l 0.1815371932903507 4.215706579563175 a25.219613455936454,25.219613455936454 0 0,0 -0.4338730038219966,0.01494346351658166 l -0.10894383779370179 -4.21820684150585" fill="#ff0000" stroke="none" /><line stroke="#e1ed5e" stroke-width="0.3" x1="102.19456741930631" x2="102.32365962044197" y1="184.97166512339345" y2="189.96999836594603" /><path d="M 102.22038585953345 185.97133177190398 a86.0,86.0 0 0,1 -42.740103519485714,-10.115201625700543" fill="none" id="id79" stroke="none" /><text fill="#e1ed5e" style="font-size:6.75px; font-family:Arial;" text-anchor="middle"><textPath startOffset="22.20632615414155" xlink:href="#id79">July</textPath></text><path d="M 98.37488393609728 120.93702456842531 l -1.060496735393123 13.66280642770743 a34.70390210147398,34.70390210147398 0 0,0 -0.595181311351767,-0.05135474793577943 l 1.2955223644864315 -13.642527427492986" fill="#ff8c0c" stroke="none" /><path d="M 95.86986931433489 120.58985236759428 l -3.835631957573123 19.121694143230087 a40.50259622258524,40.50259622258524 0 0,0 -0.6823887798965964,-0.14300120356916574 l 4.164212198899106 -19.052836958934382" fill="#ffdb14" stroke="none" /><path d="M 93.76903079525671 120.05430185196036 l -5.859717586399163 18.85943283998798 a40.7487847028209,40.7487847028209 0 0,0 -0.6680446088888592,-0.21388678761278296 l 6.183483540378963 -18.755773205715492" fill="#ffde14" stroke="none" /><path d="M 93.42475214034765 119.94407469862007 l -3.892620898541617 11.807117181135178 a33.432236869880676,33.432236869880676 0 0,0 -0.5449936464843894,-0.18489143482773268 l 4.095284277963232 -11.738362759409322" fill="#ff7a0b" stroke="none" /><line stroke="#e1ed5e" stroke-width="0.3" x1="58.666819895761336" x2="56.23545636021788" y1="174.27360380694188" y2="178.64263932499728" /><path d="M 58.180547188652646 175.14741091055294 a86.0,86.0 0 0,1 -31.652253787137756,-30.449443065178592" fill="none" id="id80" stroke="none" /><text fill="#e1ed5e" style="font-size:6.75px; font-family:Arial;" text-anchor="middle"><textPath startOffset="22.20632615414155" xlink:href="#id80">August</textPath></text><path d="M 86.79598089348748 116.32954008644616 l -18.273199626922437 22.598645413068873 a50.0621506277663,50.0621506277663 0 0,0 -0.6654210318811826,-0.5475962076049987 l 18.659490787348307 -22.28075408660669" fill="#acff21" stroke="none" /><path d="M 86.24171649860922 115.8653595955263 l -19.21426927721569 22.156927600560394 a50.327761328710885,50.327761328710885 0 0,0 -0.6496059318685332,-0.573201706487389 l 19.59281756199081 -21.822902752300713" fill="#a9ff21" stroke="none" /><path d="M 83.72743513129214 113.27417163493432 l -22.66377407925889 18.48773253944613 a50.24795565446895,50.24795565446895 0 0,0 -0.5409601299684332,-0.6749309385580761 l 22.978652121282185 -18.094873767309796" fill="#a9ff21" stroke="none" /><path d="M 82.05923443525364 110.91462005526583 l -16.68497227957079 10.150633338746955 a40.530070587371846,40.530070587371846 0 0,0 -0.3574735324800887,-0.5991462022758014 l 16.85722668774911 -9.861925042585042" fill="#ffdb14" stroke="none" /><line stroke="#e1ed5e" stroke-width="0.3" x1="26.63291911575756" x2="22.317208475507996" y1="142.92168965132927" y2="145.44649492493687" /><path d="M 25.769776987707644 143.4266507060508 a86.0,86.0 0 0,1 -11.730757126820373,-40.83630448921669" fill="none" id="id81" stroke="none" /><text fill="#e1ed5e" style="font-size:6.75px; font-family:Arial;" text-anchor="middle"><textPath startOffset="21.46611528233685" xlink:href="#id81">September</textPath></text><path d="M 80.87730276802145 108.67885076344099 l -17.37171409960415 7.884165729691313 a40.07712032806903,40.07712032806903 0 0,0 -0.2796980610655128,-0.630645289571086 l 17.504853245400945 -7.583972103627532" fill="#ffd513" stroke="none" /><path d="M 79.97269907076064 106.31721596034903 l -27.828995368565806 8.778106162379421 a50.18061224549034,50.18061224549034 0 0,0 -0.25275072927732906,-0.8260040073376395 l 27.975972870349267 -8.297775182489735" fill="#aaff21" stroke="none" /><line stroke="#e1ed5e" stroke-width="0.3" x1="15.007084014347285" x2="10.007500721073583" y1="101.09737516637583" y2="101.16192664675087" /><path d="M 14.007167355692545 101.11028546245083 a86.0,86.0 0 0,1 10.666146001902534,-42.60595125391555" fill="none" id="id82" stroke="none" /><text fill="#e1ed5e" style="font-size:6.75px; font-family:Arial;" text-anchor="middle"><textPath startOffset="22.20632615414155" xlink:href="#id82">October</textPath></text><path d="M 79.62865764111835 94.90015583598534 l -38.63342090986975 -9.671646703105978 a60.82564451642762,60.82564451642762 0 0,0 0.2630091256402073,-1.013481449266294 l 38.461215452359234 10.335224577921135" fill="#35ff2f" stroke="none" /><path d="M 79.71946130924805 94.55025226153421 l -60.84161607225587 -16.349243215397365 a84.0,84.0 0 0,0 0.38725291773455695,-1.3931547863242297 l 60.551176383954946 17.394109305140535" fill="#4dd2ff" stroke="none" /><path d="M 79.81627453868168 94.20196356495316 l -48.62615356281858 -13.968492119739237 a71.59270285736898,71.59270285736898 0 0,0 0.35044322207482753,-1.1815203301786266 l 48.37850444363204 14.803441836664403" fill="#3dffab" stroke="none" /><path d="M 79.91906864156998 93.8553929516997 l -39.86731855945623 -12.19908590118405 a62.69197507849239,62.69197507849239 0 0,0 0.3246385000726893,-1.0291927607004583 l 39.65142457561534 12.883528828310924" fill="#31ff40" stroke="none" /><line stroke="#e1ed5e" stroke-width="0.3" x1="26.266209847984243" x2="21.928928074336255" y1="57.711370442889674" y2="55.22380399835377" /><path d="M 25.398753493254645 57.213857153982495 a86.0,86.0 0 0,1 29.58750427330803,-30.492523968695096" fill="none" id="id83" stroke="none" /><text fill="#e1ed5e" style="font-size:6.75px; font-family:Arial;" text-anchor="middle"><textPath startOffset="21.46611528233685" xlink:href="#id83">November</textPath></text><line stroke="#e1ed5e" stroke-width="0.3" x1="56.762969772571076" x2="54.21961505331055" y1="26.818313649435495" y2="22.513508569990535" /><path d="M 56.25429882871897 25.957352633546506 a86.0,86.0 0 0,1 42.265352541879196,-11.944610805530505" fill="none" id="id84" stroke="none" /><text fill="#e1ed5e" style="font-size:6.75px; font-family:Arial;" text-anchor="middle"><textPath startOffset="22.20632615414155" xlink:href="#id84">December</textPath></text></svg>