<?xml version="1.0" encoding="utf-8" ?>
<svg baseProfile="full" height="200mm" version="1.1" viewBox="0,0,200,200" width="200mm" xmlns="http://www.w3.org/2000/svg" xmlns:ev="http://www.w3.org/2001/xml-events" xmlns:xlink="http://www.w3.org/1999/xlink"><defs /><rect fill="#1a1a1a" height="200" width="200" x="0" y="0" /><text alignment-baseline="middle" fill="#e1ed5e" style="dominant-baseline: central; font-size:9.0px; font-family:Arial;" text-anchor="middle" x="100.0" y="100.0">2013</text><line stroke="#e1ed5e" stroke-width="0.3" x1="100.0" x2="100.0" y1="15.0" y2="10.0" /><path d="M 100.0 14.0 a86.0,86.0 0 0,1 42.46469731375804,11.215312516191453" fill="none" id="id1" stroke="none" /><text fill="#e1ed5e" style="font-size:6.75px; font-family:Arial;" text-anchor="middle"><textPath startOffset="22.20632615414155" xlink:href="#id1">January</textPath></text><line stroke="#e1ed5e" stroke-width="0.3" x1="143.23703022742887" x2="145.7803849466894" y1="26.81831364943548" y2="22.513508569990506" /><path d="M 143.74570117128098 25.957352633546492 a86.0,86.0 0 0,1 28.547481713284135,27.462654790039103" fill="none" id="id2" stroke="none" /><text fill="#e1ed5e" style="font-size:6.75px; font-family:Arial;" text-anchor="middle"><textPath startOffset="19.985693538727396" xlink:href="#id2">February</textPath></text><line stroke="#e1ed5e" stroke-width="0.3" x1="172.23445277983987" x2="176.4835382374775" y1="55.19839476539836" y2="52.563006222186495" /><path d="M 173.08426987136738 54.67131705675599 a86.0,86.0 0 0,1 12.851231095245387,41.99856678651699" fill="none" id="id3" stroke="none" /><text fill="#e1ed5e" style="font-size:6.75px; font-family:Arial;" text-anchor="middle"><textPath startOffset="22.20632615414155" xlink:href="#id3">March</textPath></text><line stroke="#e1ed5e" stroke-width="0.3" x1="184.98032266829074" x2="189.97916517819016" y1="98.17113171792111" y2="98.06355123074" /><path d="M 185.9800911702706 98.14961562048488 a86.0,86.0 0 0,1 -9.607161424134198,41.387399972396054" fill="none" id="id4" stroke="none" /><text fill="#e1ed5e" style="font-size:6.75px; font-family:Arial;" text-anchor="middle"><textPath startOffset="21.466115282336823" xlink:href="#id4">April</textPath></text><line stroke="#e1ed5e" stroke-width="0.3" x1="174.80103733775053" x2="179.2010983576182" y1="140.37084112569926" y2="142.7455964860345" /><path d="M 175.68104954172406 140.8457921977663 a86.0,86.0 0 0,1 -30.038265399797805,32.042727171017184" fill="none" id="id5" stroke="none" /><text fill="#e1ed5e" style="font-size:6.75px; font-family:Arial;" text-anchor="middle"><textPath startOffset="22.206326154141568" xlink:href="#id5">May</textPath></text><line stroke="#e1ed5e" stroke-width="0.3" x1="143.8653032363475" x2="146.44561519142675" y1="172.8068346515853" y2="177.08958963109032" /><path d="M 144.38136562736335 173.6633856474863 a86.0,86.0 0 0,1 -40.68145358897372,12.25698825130547" fill="none" id="id6" stroke="none" /><text fill="#e1ed5e" style="font-size:6.75px; font-family:Arial;" text-anchor="middle"><textPath startOffset="21.466115282336833" xlink:href="#id6">June</textPath></text><line stroke="#e1ed5e" stroke-width="0.3" x1="102.19456741930631" x2="102.32365962044197" y1="184.97166512339345" y2="189.96999836594603" /><path d="M 102.22038585953345 185.97133177190398 a86.0,86.0 0 0,1 -42.740103519485714,-10.115201625700543" fill="none" id="id7" stroke="none" /><text fill="#e1ed5e" style="font-size:6.75px; font-family:Arial;" text-anchor="middle"><textPath startOffset="22.20632615414155" xlink:href="#id7">July</textPath></text><path d="M 97.2962882734958 120.8252237178851 l -1.9377456946104565 14.925403179283359 a36.05066504979575,36.05066504979575 0 0,0 -0.6147005915729541,-0.08519190082746077 l 2.1943748773702416 -14.889836712963294" fill="#ff990e" stroke="none" /><path d="M 96.22490169976321 120.6578951692458 l -2.7673653491866954 15.143431702140358 a36.394214325299906,36.394214325299906 0 0,0 -0.6152916537000102,-0.11792210983808196 l 3.0276246174584007 -15.093552393953807" fill="#ff9e0e" stroke="none" /><path d="M 93.42475214034765 119.94407469862007 l -9.85908031472033 29.904611727727815 a52.48789080326375,52.48789080326375 0 0,0 -0.8556282702972862,-0.2902755648527871 l 10.372378317954842 -29.730473175976904" fill="#93ff23" stroke="none" /><path d="M 92.40401165467489 119.57807347666478 l -5.487783823354739 14.144339094966439 a36.17162152590388,36.17162152590388 0 0,0 -0.5785373959972265,-0.2302119695184049 l 5.730442295393824 -14.047780281041968" fill="#ff9a0e" stroke="none" /><line stroke="#e1ed5e" stroke-width="0.3" x1="58.666819895761336" x2="56.23545636021788" y1="174.27360380694188" y2="178.64263932499728" /><path d="M 58.180547188652646 175.14741091055294 a86.0,86.0 0 0,1 -31.652253787137756,-30.449443065178592" fill="none" id="id8" stroke="none" /><text fill="#e1ed5e" style="font-size:6.75px; font-family:Arial;" text-anchor="middle"><textPath startOffset="22.20632615414155" xlink:href="#id8">August</textPath></text><path d="M 89.1626897886671 117.98757091392108 l -16.264898520890053 26.996183540662578 a52.51731031760154,52.51731031760154 0 0,0 -0.7703059019728974,-0.4731848001544392 l 16.72718362279526 -26.712210273679762" fill="#92ff23" stroke="none" /><path d="M 87.95078237400918 117.19931262002967 l -8.537410234348568 12.186483151342971 a35.8794403492714,35.8794403492714 0 0,0 -0.5027780374698362,-0.35871878014988473 l 8.745915599667292 -12.037720109348866" fill="#ff960d" stroke="none" /><path d="M 87.07902340077011 116.55440617244103 l -9.409114219281918 12.054994242321207 a36.292295987649815,36.292295987649815 0 0,0 -0.48915535482800804,-0.38861459764333883 l 9.615227066827284 -11.891245730672738" fill="#ff9c0e" stroke="none" /><path d="M 85.18274418774928 114.88116024355367 l -11.3884011443249 11.437517479211692 a37.14039921164696,37.14039921164696 0 0,0 -0.44915012233227747,-0.45498670259758134 l 11.583591891712711 -11.239790282633447" fill="#ffa80f" stroke="none" /><path d="M 84.9287848128048 114.62390073753433 l -22.66811334790823 21.99532256620108 a52.58540133582047,52.58540133582047 0 0,0 -0.6247482441140678,-0.6550460362430346 l 23.043368143401253 -21.601869413375542" fill="#91ff23" stroke="none" /><path d="M 83.95833913139862 113.55231037782056 l -5.636917090452737 4.762178343601723 a28.37923958554724,28.37923958554724 0 0,0 -0.31204190191821696,-0.3758745724948331 l 5.7180549922644905 -4.664442513993128" fill="#ff2904" stroke="none" /><path d="M 83.50135304334701 112.99209946851258 l -16.273657403622188 12.814928173191689 a41.71362617637311,41.71362617637311 0 0,0 -0.43936998758703155,-0.5679449366265966 l 16.49183420842729 -12.53290524245184" fill="#ffe615" stroke="none" /><line stroke="#e1ed5e" stroke-width="0.3" x1="26.63291911575756" x2="22.317208475507996" y1="142.92168965132927" y2="145.44649492493687" /><path d="M 25.769776987707644 143.4266507060508 a86.0,86.0 0 0,1 -11.730757126820373,-40.83630448921669" fill="none" id="id9" stroke="none" /><text fill="#e1ed5e" style="font-size:6.75px; font-family:Arial;" text-anchor="middle"><textPath startOffset="21.46611528233685" xlink:href="#id9">September</textPath></text><path d="M 81.87401531095188 110.60418214915194 l -38.36936651031868 22.4470978213298 a65.4531268529393,65.4531268529393 0 0,0 -0.5605530576231605,-0.9773715051238331 l 38.75007156409422 -21.783306470347657" fill="#34ff61" stroke="none" /><path d="M 80.32549172779594 107.34259656027581 l -14.07513476942651 5.252890426207937 a36.02339098230709,36.02339098230709 0 0,0 -0.2118102296494335,-0.5828107831213718 l 14.163469260081168 -5.0098318460804485" fill="#ff980e" stroke="none" /><path d="M 79.97269907076064 106.31721596034903 l -29.267883922655965 9.231975097148911 a51.68938568144434,51.68938568144434 0 0,0 -0.2603501500334181,-0.8508393540680809 l 29.422460845195513 -8.726808770528782" fill="#9cff22" stroke="none" /><path d="M 79.18660465613746 102.79330883721812 l -15.276334671227636 2.050195075452922 a36.41329623522376,36.41329623522376 0 0,0 -0.0780258749491665,-0.6219429936879957 l 15.30936205542365 -1.786934327477518" fill="#ff9e0e" stroke="none" /><path d="M 79.04373962182676 101.35467743843564 l -5.038003944911322 0.32567214549545753 a26.048519198269297,26.048519198269297 0 0,0 -0.025073125093962447,-0.4476974917254638 l 5.042863420892816 -0.2389029374345561" fill="#ff0500" stroke="none" /><line stroke="#e1ed5e" stroke-width="0.3" x1="15.007084014347285" x2="10.007500721073583" y1="101.09737516637583" y2="101.16192664675087" /><path d="M 14.007167355692545 101.11028546245083 a86.0,86.0 0 0,1 10.666146001902534,-42.60595125391555" fill="none" id="id10" stroke="none" /><text fill="#e1ed5e" style="font-size:6.75px; font-family:Arial;" text-anchor="middle"><textPath startOffset="22.20632615414155" xlink:href="#id10">October</textPath></text><path d="M 79.00019446554 99.90962569577889 l -14.972669123990595 -0.06443605166691825 a35.97280777614058,35.97280777614058 0 0,0 0.007994516087954035,-0.6191840812778631 l 14.969341600784926 0.3221563910052533" fill="#ff980e" stroke="none" /><path d="M 79.3925641242962 95.95851677861259 l -14.631641620042572 -2.8695241108804947 a35.91036904708554,35.91036904708554 0 0,0 0.12418268019770178,-0.6055588512252014 l 14.580079643929876 3.120958618269099" fill="#ff970d" stroke="none" /><path d="M 80.02781315780177 93.51064311812611 l -59.91656052659468 -19.468070645621676 a84.0,84.0 0 0,0 0.4586508249129104,-1.3713075883107113 l 59.572572407909995 20.496551336854708" fill="#4dd2ff" stroke="none" /><path d="M 80.803312248108 91.48605970444005 l -14.420919301504215 -6.395834923553097 a36.77560198121892,36.77560198121892 0 0,0 0.2616280822986705,-0.5764627992286285 l 14.308688902242194 6.643119731623797" fill="#ffa30f" stroke="none" /><line stroke="#e1ed5e" stroke-width="0.3" x1="26.266209847984243" x2="21.928928074336255" y1="57.711370442889674" y2="55.22380399835377" /><path d="M 25.398753493254645 57.213857153982495 a86.0,86.0 0 0,1 29.58750427330803,-30.492523968695096" fill="none" id="id11" stroke="none" /><text fill="#e1ed5e" style="font-size:6.75px; font-family:Arial;" text-anchor="middle"><textPath startOffset="21.46611528233685" xlink:href="#id11">November</textPath></text><path d="M 82.15384107792192 88.93136811851018 l -4.014033820281486 -2.4896036682482054 a25.723409143332653,25.723409143332653 0 0,0 0.23662156080791194,-0.3742784844073785 l 3.9705846632276116 2.5583298003697994" fill="#ff0000" stroke="none" /><path d="M 83.39014120810768 87.1503855733568 l -12.15530299494293 -9.403509005162563 a36.36806339487972,36.36806339487972 0 0,0 0.38731280833164866,-0.4918479343496946 l 11.99163610601731 9.611349333465306" fill="#ff9d0e" stroke="none" /><path d="M 84.5562425177563 85.77008943001954 l -10.891255517998788 -10.03522570165437 a35.809632056249185,35.809632056249185 0 0,0 0.421586249167576,-0.4497188163608127 l 10.716901946860755 10.221213934893234" fill="#ff950d" stroke="none" /><path d="M 88.09926311788651 82.69761687909137 l -4.710229941552773 -6.848164432474 a29.31165580353892,29.31165580353892 0 0,0 0.4181730703767415,-0.28235232380274344 l 4.591652176769491 6.92822866857541" fill="#ff3705" stroke="none" /><path d="M 89.00827224532344 82.1063720568725 l -8.15702820375717 -13.278970427331457 a36.58422807606566,36.58422807606566 0 0,0 0.5394221328807257,-0.3249957994252012 l 7.927244004658795 13.417412836215277" fill="#ffa00e" stroke="none" /><line stroke="#e1ed5e" stroke-width="0.3" x1="56.762969772571076" x2="54.21961505331055" y1="26.818313649435495" y2="22.513508569990535" /><path d="M 56.25429882871897 25.957352633546506 a86.0,86.0 0 0,1 42.265352541879196,-11.944610805530505" fill="none" id="id12" stroke="none" /><text fill="#e1ed5e" style="font-size:6.75px; font-family:Arial;" text-anchor="middle"><textPath startOffset="22.20632615414155" xlink:href="#id12">December</textPath></text><path d="M 89.3179101791058 81.91981866633112 l -15.986708435080407 -27.058617955952705 a52.428389272669975,52.428389272669975 0 0,0 0.7809414988605393,-0.452371722425907 l 15.518570203754548 27.32979383576866" fill="#93ff23" stroke="none" /><path d="M 92.57280143429618 80.3572730644239 l -5.167665061361326 -13.66693414709032 a35.61129190617031,35.61129190617031 0 0,0 0.575237124602153,-0.2118646876167657 l 4.931645610986604 13.753862102513407" fill="#ff930d" stroke="none" /><path d="M 93.59665428221793 80.00007090966166 l -4.682961562060729 -14.626556694245648 a36.357938980270774,36.357938980270774 0 0,0 0.5976805882895354,-0.18570226814158194 l 4.430495601060465 14.704999097269756" fill="#ff9d0e" stroke="none" /><path d="M 96.40284397218896 79.31037775812273 l -5.35760407533916 -30.815122720090258 a52.277399343332775,52.277399343332775 0 0,0 0.8878962630848094,-0.14651049119774398 l 4.826378606115465 30.90277947422763" fill="#95ff23" stroke="none" /><path d="M 97.47563105711357 79.15227682838746 l -1.3973755432509722 -11.540348955160091 a32.62464246399607,32.62464246399607 0 0,0 0.5580884694837212,-0.06270774221056312 l 1.198520370257533 11.562692650841253" fill="#ff6809" stroke="none" /><path d="M 98.55514903715128 79.0497635885617 l -1.5956037380316876 -23.136140951749276 a44.191096770701265,44.191096770701265 0 0,0 0.7593249913461808,-0.04580455710460312 l 1.1971166978458838 23.160178778234187" fill="#f8ff18" stroke="none" /></svg>